<svg enable-background="new 0 0 32 32" height="512" viewBox="0 0 32 32" width="512" xmlns="http://www.w3.org/2000/svg"><g id="BG"><path d="m26 32h-20c-3.314 0-6-2.686-6-6v-20c0-3.314 2.686-6 6-6h20c3.314 0 6 2.686 6 6v20c0 3.314-2.686 6-6 6z" fill="#ffe6e2"/></g><g id="solid"><g><path d="m23.333 15.833v-6.333c0-.827-.673-1.5-1.5-1.5h-11.666c-.827 0-1.5.673-1.5 1.5v6.333c0 .827.673 1.5 1.5 1.5h11.667c.826 0 1.499-.673 1.499-1.5zm-11-3.166c0 .276-.224.5-.5.5h-.667c-.276 0-.5-.224-.5-.5s.224-.5.5-.5h.667c.276 0 .5.224.5.5zm6 0c0 1.286-1.046 2.333-2.333 2.333s-2.333-1.047-2.333-2.333 1.046-2.333 2.333-2.333 2.333 1.046 2.333 2.333zm3 0c0 .276-.224.5-.5.5h-.667c-.276 0-.5-.224-.5-.5s.224-.5.5-.5h.667c.276 0 .5.224.5.5z" fill="#fc573b"/></g><g><g><path d="m13.529 21.805 2 2c.26.26.682.26.943 0l2-2c.191-.191.248-.477.145-.727-.103-.249-.346-.411-.616-.411h-4c-.27 0-.513.162-.616.411-.104.25-.047.536.144.727z" fill="#fd907e"/></g><g><g><path d="m16 18c.368 0 .667.299.667.667v4.167c0 .368-.298.667-.667.667-.368 0-.667-.299-.667-.667v-4.167c0-.368.299-.667.667-.667z" fill="#fd907e"/></g></g></g></g></svg>