<svg enable-background="new 0 0 32 32" height="512" viewBox="0 0 32 32" width="512" xmlns="http://www.w3.org/2000/svg"><g id="BG"><path d="m26 32h-20c-3.314 0-6-2.686-6-6v-20c0-3.314 2.686-6 6-6h20c3.314 0 6 2.686 6 6v20c0 3.314-2.686 6-6 6z" fill="#fff9dd"/></g><g id="solid"><g><path d="m18.333 8.5c-1.58 0-3.01.652-4.039 1.698 3.382.318 6.039 3.171 6.039 6.635 0 1.012-.233 1.968-.638 2.828 2.468-.612 4.305-2.84 4.305-5.494 0-3.125-2.542-5.667-5.667-5.667z" fill="#ffd200"/></g><g><path d="m13.667 11.167c-3.125 0-5.667 2.542-5.667 5.666s2.542 5.667 5.667 5.667 5.667-2.542 5.667-5.667-2.543-5.666-5.667-5.666zm-.254 5.166h.507c.779 0 1.413.634 1.413 1.413 0 .701-.505 1.277-1.167 1.395v.525c0 .276-.224.5-.5.5s-.5-.224-.5-.5v-.5h-.666c-.276 0-.5-.224-.5-.5s.224-.5.5-.5h1.42c.228 0 .413-.186.413-.413 0-.234-.186-.42-.413-.42h-.507c-.779 0-1.413-.634-1.413-1.413 0-.701.505-1.277 1.167-1.395v-.525c0-.276.224-.5.5-.5s.5.224.5.5v.5h.667c.276 0 .5.224.5.5s-.224.5-.5.5h-1.42c-.228 0-.414.186-.414.413 0 .235.186.42.413.42z" fill="#ffe777"/></g></g></svg>