<svg enable-background="new 0 0 32 32" height="512" viewBox="0 0 32 32" width="512" xmlns="http://www.w3.org/2000/svg"><g id="BG"><path d="m26 32h-20c-3.314 0-6-2.686-6-6v-20c0-3.314 2.686-6 6-6h20c3.314 0 6 2.686 6 6v20c0 3.314-2.686 6-6 6z" fill="#f5e6fe"/></g><g id="solid"><g><ellipse cx="13.667" cy="10.333" fill="#be63f9" rx="5.667" ry="2.333"/></g><g><path d="m12.94 15.979c.443-.939 1.108-1.75 1.929-2.369-.398.034-.8.057-1.203.057-2.207 0-4.427-.511-5.667-1.498v1.498c.001 1.187 2.156 2.165 4.941 2.312z" fill="#be63f9"/></g><g><path d="m12.333 18.667c0-.594.088-1.168.242-1.714-1.823-.14-3.541-.627-4.575-1.451v1.498c0 1.104 1.863 2.026 4.364 2.269-.019-.199-.031-.399-.031-.602z" fill="#be63f9"/></g><g><path d="m18.667 13.333c-2.941 0-5.333 2.393-5.333 5.333s2.392 5.334 5.333 5.334 5.333-2.393 5.333-5.333-2.393-5.334-5.333-5.334zm-.254 4.834h.507c.779 0 1.413.634 1.413 1.413 0 .701-.505 1.277-1.167 1.395v.525c0 .276-.224.5-.5.5s-.5-.224-.5-.5v-.5h-.666c-.276 0-.5-.224-.5-.5s.224-.5.5-.5h1.42c.228 0 .413-.186.413-.413 0-.234-.186-.42-.413-.42h-.507c-.779 0-1.413-.634-1.413-1.413 0-.701.505-1.277 1.167-1.395v-.525c0-.276.224-.5.5-.5s.5.224.5.5v.5h.667c.276 0 .5.224.5.5s-.224.5-.5.5h-1.42c-.228 0-.413.186-.413.413-.001.234.185.42.412.42z" fill="#d9a4fc"/></g></g></svg>