<svg width="512" height="448" viewBox="0 0 512 448" fill="none" xmlns="http://www.w3.org/2000/svg">
<path d="M330.656 0C280.096 0 234.336 20.864 201.408 54.336C309.632 64.512 394.656 155.808 394.656 266.656C394.656 299.04 387.2 329.632 374.24 357.152C453.216 337.568 512 266.272 512 181.344C512 81.344 430.656 0 330.656 0V0Z" fill="url(#paint0_linear)"/>
<path d="M181.344 85.3438C81.344 85.3438 0 166.688 0 266.656C0 366.624 81.344 448 181.344 448C281.344 448 362.688 366.656 362.688 266.656C362.688 166.656 281.312 85.3438 181.344 85.3438V85.3438ZM173.216 250.656H189.44C214.368 250.656 234.656 270.944 234.656 295.872C234.656 318.304 218.496 336.736 197.312 340.512V357.312C197.312 366.144 190.144 373.312 181.312 373.312C172.48 373.312 165.312 366.144 165.312 357.312V341.312H144C135.168 341.312 128 334.144 128 325.312C128 316.48 135.168 309.312 144 309.312H189.44C196.736 309.312 202.656 303.36 202.656 296.096C202.656 288.608 196.704 282.656 189.44 282.656H173.216C148.288 282.656 128 262.368 128 237.44C128 215.008 144.16 196.576 165.344 192.8V176C165.344 167.168 172.512 160 181.344 160C190.176 160 197.344 167.168 197.344 176V192H218.688C227.52 192 234.688 199.168 234.688 208C234.688 216.832 227.52 224 218.688 224H173.248C165.952 224 160 229.952 160 237.216C160 244.736 165.952 250.656 173.216 250.656V250.656Z" fill="url(#paint1_linear)"/>
<defs>
<linearGradient id="paint0_linear" x1="356.704" y1="0" x2="356.704" y2="357.152" gradientUnits="userSpaceOnUse">
<stop stop-color="#004870"/>
<stop offset="1" stop-color="#059991"/>
</linearGradient>
<linearGradient id="paint1_linear" x1="181.344" y1="85.3437" x2="181.344" y2="448" gradientUnits="userSpaceOnUse">
<stop stop-color="#004870"/>
<stop offset="1" stop-color="#059991"/>
</linearGradient>
</defs>
</svg>
