<svg width="512" height="512" viewBox="0 0 512 512" fill="none" xmlns="http://www.w3.org/2000/svg">
<path d="M181.365 149.303C281.512 149.303 362.698 115.88 362.698 74.6513C362.698 33.4226 281.512 0 181.365 0C81.2176 0 0.0322266 33.4226 0.0322266 74.6513C0.0322266 115.88 81.2176 149.303 181.365 149.303Z" fill="url(#paint0_linear)"/>
<path d="M158.102 255.312C172.277 225.266 193.556 199.316 219.826 179.509C207.091 180.597 194.228 181.333 181.333 181.333C110.713 181.333 39.6775 164.982 0 133.4V181.333C0.031998 219.315 68.9877 250.609 158.102 255.312V255.312Z" fill="url(#paint1_linear)"/>
<path d="M138.68 341.323C138.68 322.316 141.495 303.949 146.423 286.478C88.0907 281.998 33.1182 266.415 0.0322266 240.049V287.982C0.0322266 323.308 59.6445 352.81 139.672 360.586C139.064 354.218 138.68 347.818 138.68 341.323V341.323Z" fill="url(#paint2_linear)"/>
<path d="M341.354 170.646C247.248 170.646 170.709 247.217 170.709 341.291C170.709 435.365 247.248 511.968 341.354 511.968C435.46 511.968 512 435.397 512 341.323C512 247.249 435.428 170.646 341.354 170.646V170.646ZM333.227 325.324H349.45C374.376 325.324 394.663 345.611 394.663 370.537C394.663 392.968 378.504 411.398 357.321 415.174V431.973C357.321 440.805 350.154 447.972 341.322 447.972C332.491 447.972 325.323 440.805 325.323 431.973V415.974H304.013C295.181 415.974 288.014 408.807 288.014 399.975C288.014 391.144 295.181 383.976 304.013 383.976H349.45C356.745 383.976 362.665 378.025 362.665 370.761C362.665 363.273 356.713 357.322 349.45 357.322H333.227C308.3 357.322 288.014 337.035 288.014 312.109C288.014 289.678 304.173 271.247 325.355 267.471V250.672C325.355 241.841 332.523 234.673 341.354 234.673C350.186 234.673 357.353 241.841 357.353 250.672V266.671H378.696C387.527 266.671 394.695 273.839 394.695 282.67C394.695 291.502 387.527 298.669 378.696 298.669H333.259C325.963 298.669 320.044 304.621 320.044 311.885C320.012 319.372 325.963 325.324 333.227 325.324V325.324Z" fill="url(#paint3_linear)"/>
<defs>
<linearGradient id="paint0_linear" x1="181.365" y1="0" x2="181.365" y2="149.303" gradientUnits="userSpaceOnUse">
<stop stop-color="#004870"/>
<stop offset="1" stop-color="#49C1BF"/>
</linearGradient>
<linearGradient id="paint1_linear" x1="109.913" y1="133.4" x2="109.913" y2="255.312" gradientUnits="userSpaceOnUse">
<stop stop-color="#004870"/>
<stop offset="1" stop-color="#49C1BF"/>
</linearGradient>
<linearGradient id="paint2_linear" x1="73.2277" y1="240.049" x2="73.2277" y2="360.586" gradientUnits="userSpaceOnUse">
<stop stop-color="#004870"/>
<stop offset="1" stop-color="#49C1BF"/>
</linearGradient>
<linearGradient id="paint3_linear" x1="341.354" y1="170.646" x2="341.354" y2="511.968" gradientUnits="userSpaceOnUse">
<stop stop-color="#004870"/>
<stop offset="1" stop-color="#49C1BF"/>
</linearGradient>
</defs>
</svg>
