<svg width="494" height="506" viewBox="0 0 494 506" fill="none" xmlns="http://www.w3.org/2000/svg">
<path d="M247 12L460.908 382.5H33.0917L247 12Z" stroke="#F44336" stroke-width="24" stroke-linecap="square" stroke-linejoin="round"/>
<path d="M257.568 208.904L252.96 279.896H238.992L234.384 208.904H257.568ZM237.984 308.84C235.776 306.632 234.672 303.944 234.672 300.776C234.672 297.608 235.776 294.92 237.984 292.712C240.192 290.408 242.832 289.256 245.904 289.256C249.072 289.256 251.76 290.408 253.968 292.712C256.272 294.92 257.424 297.608 257.424 300.776C257.424 303.944 256.272 306.632 253.968 308.84C251.76 311.048 249.072 312.152 245.904 312.152C242.832 312.152 240.192 311.048 237.984 308.84Z" fill="#F44336"/>
</svg>
