<svg width="512" height="513" viewBox="0 0 512 513" fill="none" xmlns="http://www.w3.org/2000/svg">
<path d="M511 49.4209V258.076C511 284.718 488.008 306.497 459.669 306.497H52.366C23.9918 306.497 1 284.718 1 258.076V49.4209C1 22.7796 23.9918 1 52.366 1H459.634C488.008 1 511 22.7796 511 49.4209ZM110.527 171.239C120.66 171.239 128.983 163.464 128.983 153.765C128.983 144.066 120.66 136.291 110.527 136.291H87.2418C77.1095 136.291 68.7865 144.066 68.7865 153.765C68.7865 163.464 77.1095 171.239 87.2418 171.239H110.527ZM256 231.631C301.427 231.631 338.447 196.741 338.447 153.765C338.447 110.756 301.427 75.899 256 75.899C210.573 75.899 173.553 110.789 173.553 153.765C173.553 196.741 210.573 231.631 256 231.631ZM424.723 171.239C434.856 171.239 443.179 163.464 443.179 153.765C443.179 144.066 434.856 136.291 424.723 136.291H401.438C391.306 136.291 382.983 144.066 382.983 153.765C382.983 163.464 391.306 171.239 401.438 171.239H424.723Z" fill="white" stroke="#252525" stroke-width="2"/>
<path d="M255.999 316.317C268.349 316.317 278.284 325.774 278.284 337.293V474.584C278.284 486.104 268.383 495.56 255.999 495.56C243.649 495.56 233.713 486.103 233.713 474.584V337.293C233.713 325.774 243.649 316.317 255.999 316.317Z" fill="white" stroke="#252525" stroke-width="2"/>
<path d="M165.624 417.13L165.623 417.132C162.168 424.97 164.052 433.943 170.421 439.954L240.242 505.848C248.933 514.05 263.063 514.052 271.791 505.848L165.624 417.13ZM165.624 417.13C169.049 409.314 177.156 404.187 186.213 404.187H325.855C334.912 404.187 343.019 409.314 346.444 417.13C349.866 424.969 347.981 433.943 341.612 439.954L271.792 505.847L165.624 417.13Z" fill="white" stroke="#252525" stroke-width="2"/>
<path d="M314.698 95.32C314.695 95.3166 314.692 95.3126 314.689 95.3092C314.685 95.3055 314.681 95.3026 314.677 95.2985C299.01 79.6386 278.186 71.0111 256.035 71.0019C256.023 71.0019 256.011 71 255.998 71C255.985 71 255.973 71.0019 255.96 71.0019C233.806 71.0122 212.98 79.6431 197.314 95.3077C197.313 95.3085 197.312 95.3089 197.312 95.3096C197.311 95.31 197.311 95.3103 197.311 95.3107C197.311 95.3107 197.31 95.3111 197.31 95.3115C181.634 110.988 173 131.831 173 154.001C173 176.171 181.634 197.014 197.31 212.69C212.987 228.367 233.83 237 256 237C278.17 237 299.013 228.367 314.69 212.69C330.367 197.014 339 176.17 339 154.001C339 131.835 330.37 110.996 314.698 95.32ZM332.113 171.9L277.839 157.357C277.887 157.043 277.925 156.726 277.959 156.408H334.142C333.981 161.721 333.288 166.902 332.113 171.9ZM324.868 190.98L276.218 162.894C276.347 162.602 276.469 162.306 276.585 162.008L330.863 176.552C329.341 181.594 327.325 186.422 324.868 190.98ZM312.932 207.526L273.223 167.815C273.422 167.568 273.616 167.318 273.804 167.063L322.45 195.147C319.69 199.588 316.498 203.735 312.932 207.526ZM297.147 220.45L269.062 171.805C269.318 171.616 269.57 171.421 269.818 171.221L309.525 210.932C305.734 214.498 301.588 217.69 297.147 220.45ZM278.551 228.862L264.007 174.586C264.306 174.469 264.601 174.347 264.893 174.218L292.981 222.868C288.422 225.325 283.593 227.341 278.551 228.862ZM219.019 222.868L247.107 174.219C247.398 174.347 247.693 174.468 247.989 174.584L233.445 228.862C228.405 227.34 223.577 225.325 219.019 222.868ZM202.475 210.933L242.182 171.222C242.43 171.421 242.682 171.616 242.938 171.805L214.853 220.45C210.412 217.69 206.266 214.498 202.475 210.933ZM189.55 195.147L238.196 167.063C238.384 167.318 238.578 167.568 238.777 167.815L199.069 207.526C195.502 203.735 192.31 199.589 189.55 195.147ZM181.138 176.552L235.415 162.008C235.531 162.307 235.654 162.602 235.783 162.894L187.132 190.98C184.675 186.422 182.659 181.594 181.138 176.552ZM179.888 136.099L234.161 150.642C234.113 150.956 234.075 151.273 234.041 151.591H177.858C178.02 146.278 178.712 141.097 179.888 136.099ZM187.131 117.022L235.781 145.11C235.653 145.401 235.532 145.694 235.416 145.991L181.138 131.447C182.66 126.407 184.675 121.579 187.131 117.022ZM199.07 100.474L238.778 140.185C238.578 140.433 238.383 140.684 238.195 140.941L189.549 112.856C192.31 108.413 195.503 104.266 199.07 100.474ZM214.854 87.5506L242.939 136.196C242.683 136.384 242.432 136.579 242.184 136.779L202.476 97.0679C206.267 93.5021 210.413 90.3109 214.854 87.5506ZM233.446 79.1399L247.99 133.417C247.693 133.533 247.399 133.654 247.109 133.783L219.021 85.1335C223.578 82.6764 228.406 80.6614 233.446 79.1399ZM292.98 85.1332L264.892 133.782C264.6 133.653 264.305 133.532 264.007 133.416L278.55 79.1388C283.592 80.6603 288.422 82.6757 292.98 85.1332ZM309.524 97.0682L269.816 136.779C269.568 136.58 269.317 136.385 269.061 136.196L297.146 87.551C301.587 90.3109 305.733 93.5024 309.524 97.0682ZM322.451 112.856L273.805 140.941C273.617 140.685 273.422 140.433 273.223 140.186L312.93 100.474C316.498 104.266 319.69 108.413 322.451 112.856ZM330.862 131.447L276.584 145.991C276.468 145.694 276.347 145.401 276.219 145.11L324.869 117.022C327.325 121.579 329.34 126.407 330.862 131.447ZM256.023 171.276C256.014 171.276 256.006 171.275 255.998 171.275C255.99 171.275 255.983 171.276 255.975 171.276C246.46 171.262 238.724 163.518 238.724 154.001C238.724 144.475 246.474 136.725 256 136.725C265.526 136.725 273.276 144.475 273.276 154.001C273.276 163.519 265.538 171.264 256.023 171.276ZM259.356 132.162C259.042 132.114 258.725 132.076 258.407 132.042V75.859C263.719 76.0206 268.9 76.7135 273.898 77.8885L259.356 132.162ZM253.59 132.042C253.272 132.076 252.955 132.115 252.641 132.162L238.098 77.8893C243.096 76.7139 248.277 76.021 253.59 75.859V132.042ZM177.858 156.408H234.04C234.075 156.726 234.113 157.043 234.161 157.357L179.887 171.901C178.712 166.903 178.019 161.721 177.858 156.408ZM252.64 175.839C252.954 175.887 253.271 175.925 253.59 175.96V232.142C248.277 231.98 243.095 231.287 238.097 230.112L252.64 175.839ZM258.407 175.96C258.725 175.925 259.042 175.887 259.356 175.839L273.899 230.113C268.901 231.288 263.72 231.981 258.407 232.142V175.96ZM277.959 151.591C277.925 151.273 277.886 150.956 277.839 150.642L332.112 136.099C333.288 141.097 333.98 146.278 334.142 151.591H277.959Z" fill="#000088"/>
<path d="M256 141.066C248.868 141.066 243.065 146.868 243.065 154.001C243.065 161.133 248.868 166.936 256 166.936C263.133 166.936 268.935 161.133 268.935 154.001C268.935 146.868 263.132 141.066 256 141.066ZM256 162.178C251.491 162.178 247.823 158.51 247.823 154.001C247.823 149.492 251.491 145.824 256 145.824C260.509 145.824 264.178 149.492 264.178 154.001C264.178 158.51 260.509 162.178 256 162.178Z" fill="#000088"/>
</svg>
