<svg width="512" height="559" viewBox="0 0 512 559" fill="none" xmlns="http://www.w3.org/2000/svg">
<path d="M512 273.455V52.366C512 23.4949 488.505 0 459.634 0H52.366C23.4949 0 0 23.4949 0 52.366V273.455C0 302.326 23.4949 325.821 52.366 325.821H459.669C488.505 325.821 512 302.326 512 273.455V273.455ZM127.983 162.928C127.983 172.563 120.163 180.383 110.527 180.383H87.2418C77.6065 180.383 69.7865 172.563 69.7865 162.928C69.7865 153.293 77.6065 145.473 87.2418 145.473H110.527C120.163 145.473 127.983 153.293 127.983 162.928ZM337.447 162.928C337.447 207.823 300.93 244.375 256 244.375C211.07 244.375 174.553 207.823 174.553 162.928C174.553 118.033 211.07 81.4815 256 81.4815C300.93 81.4815 337.447 117.998 337.447 162.928ZM442.179 162.928C442.179 172.563 434.359 180.383 424.723 180.383H401.438C391.803 180.383 383.983 172.563 383.983 162.928C383.983 153.293 391.803 145.473 401.438 145.473H424.723C434.359 145.473 442.179 153.293 442.179 162.928Z" fill="url(#paint0_linear)"/>
<path d="M255.999 349.107C268.846 349.107 279.284 359.545 279.284 372.392V517.865C279.284 530.712 268.881 541.151 255.999 541.151C243.152 541.151 232.713 530.712 232.713 517.865V372.392C232.713 359.545 243.152 349.107 255.999 349.107Z" fill="url(#paint1_linear)"/>
<path d="M169.735 481.942L239.556 551.763C248.633 560.84 263.365 560.84 272.477 551.763L342.298 481.942C348.966 475.274 350.956 465.289 347.36 456.562C343.764 447.869 335.281 442.213 325.855 442.213H186.213C176.787 442.213 168.303 447.869 164.708 456.562C161.077 465.289 163.067 475.274 169.735 481.942V481.942Z" fill="url(#paint2_linear)"/>
<defs>
<linearGradient id="paint0_linear" x1="256" y1="0" x2="256" y2="325.821" gradientUnits="userSpaceOnUse">
<stop stop-color="#059991"/>
<stop offset="1" stop-color="#49C1BF" stop-opacity="0.35"/>
</linearGradient>
<linearGradient id="paint1_linear" x1="255.999" y1="349.107" x2="255.999" y2="541.151" gradientUnits="userSpaceOnUse">
<stop stop-color="#059991"/>
<stop offset="0.78125" stop-color="#49C1BF" stop-opacity="0"/>
</linearGradient>
<linearGradient id="paint2_linear" x1="256.022" y1="442.213" x2="256.022" y2="558.571" gradientUnits="userSpaceOnUse">
<stop stop-color="#059991"/>
<stop offset="0.677083" stop-color="#49C1BF" stop-opacity="0.35"/>
</linearGradient>
</defs>
</svg>
